<svg height='100px' width='100px'  fill="#fdfdfd" xmlns:x="http://ns.adobe.com/Extensibility/1.0/" xmlns:i="http://ns.adobe.com/AdobeIllustrator/10.0/" xmlns:graph="http://ns.adobe.com/Graphs/1.0/" xmlns="http://www.w3.org/2000/svg" xmlns:xlink="http://www.w3.org/1999/xlink" xmlns:a="http://ns.adobe.com/AdobeSVGViewerExtensions/3.0/" version="1.1" i:viewOrigin="0.3386 69.3307" i:rulerOrigin="0.3386 69.3307" i:pageBounds="0.3386 69.3307 64.3386 5.3307" x="0px" y="0px" viewBox="0 0 64 64" style="enable-background:new 0 0 64 64;" xml:space="preserve"><metadata><?xpacket begin="&#65279;" id="W5M0MpCehiHzreSzNTczkc9d"?><x:xmpmeta xmlns:x="adobe:ns:meta/" x:xmptk="Adobe XMP Core 5.5-c014 79.151739, 2013/04/03-12:12:15        "></x:xmpmeta><?xpacket end="w"?></metadata><g><g i:extraneous="self"><g i:layer="yes" i:dimmedPercent="50" i:rgbTrio="#4F008000FFFF"><g i:knockout="Off"><path i:knockout="Off" d="M38.6,16c0.2,0.3,0.6,0.4,0.9,0.2c0.3-0.2,0.4-0.6,0.2-0.9l-0.4-0.6c-0.2-0.3-0.6-0.4-0.9-0.2      c-0.3,0.2-0.4,0.6-0.2,0.9L38.6,16z"></path><path i:knockout="Off" d="M49.7,32.6c-0.1-0.2-0.5-0.9-0.6-1c-3.3-5.7-8.2-14.2-8.2-14.2c-0.2-0.3-0.6-0.4-0.9-0.2      c-0.3,0.2-0.4,0.6-0.2,0.9l3,5.1c0.2,0.3,0.1,0.8-0.3,1c-0.3,0.2-0.8,0.1-1-0.3l-3.8-6.6c-0.2-0.3-0.5-0.4-0.8-0.2      c-0.3,0.2-0.4,0.5-0.2,0.7l0,0l1.5,2.6l0,0l1.4,2.4c0.2,0.4,0.1,0.8-0.3,1c-0.4,0.2-0.8,0.1-1-0.3l-2.1-3.6l0,0l0,0l0,0      c0,0,0,0,0,0c0,0,0,0,0,0c-0.2-0.3-0.5-0.4-0.8-0.2c-0.3,0.2-0.4,0.5-0.2,0.8c0,0,0,0,0,0c0,0,0,0,0,0l0,0l1.4,2.4      c0.2,0.3,0.1,0.8-0.3,1c-0.3,0.2-0.8,0.1-1-0.3L35,23c-0.1-0.2-0.3-0.3-0.5-0.3c-0.1,0-0.2,0-0.3,0.1c-0.1,0.1-0.2,0.2-0.2,0.3      c-0.1,0.2-0.1,0.4,0,0.6c0,0,0.1,0.2,0.3,0.5l2,3.5c0.2,0.3,0.5,0.9,0.5,0.9c0.1,0.2,0.3,0.3,0.5,0.3c0.1,0,0.2,0,0.3-0.1      c0.1-0.1,0.2-0.2,0.2-0.3c0.1-0.2,0.1-0.4,0-0.6L37.3,27l0,0c0,0,0,0,0,0c-0.2-0.3-0.1-0.8,0.3-1c0.3-0.2,0.8-0.1,1,0.3l0.8,1.4      c0,0,0.2,0.3,0.3,0.5c0.2,0.3,0.5,0.4,0.8,0.2c0.2-0.1,0.3-0.4,0.2-0.7L40.3,27c-0.2-0.3-0.1-0.8,0.3-1c0.3-0.2,0.8-0.1,1,0.3      l0.8,1.5c0,0,1.4,2.4,1.5,2.6c0.2,0.3,0.5,0.4,0.8,0.2c0.2-0.1,0.3-0.4,0.2-0.7l-1.4-2.5c-0.2-0.3-0.1-0.8,0.3-1      c0.4-0.2,0.8-0.1,1,0.3l3.5,6.1h0c0.2,0.3,0.1,0.8-0.3,1c-0.3,0.2-0.8,0.1-1-0.3l-1.1-2l0,0c-0.2-0.3-0.5-0.3-0.8-0.2      c-0.3,0.2-0.4,0.5-0.2,0.8l0.8,1.3c0.2,0.3,0.1,0.8-0.3,1c-0.3,0.2-0.8,0.1-1-0.3L42,29.9l0,0c-0.2-0.3-0.5-0.3-0.8-0.2      c-0.3,0.2-0.4,0.5-0.2,0.8l2.1,3.7l0,0c0.2,0.3,0.1,0.7-0.2,0.9c-0.3,0.2-0.7,0.1-0.9-0.2l-2-3.5c-0.2-0.3-0.7-0.5-1-0.3      c-0.4,0.2-0.5,0.7-0.3,1l2.7,4.6c0.9,1.6,1.4,3.2,1.4,4.9l0,0c0.2,3.9-1.8,7.8-5.4,9.8c-5.2,3-11.8,1.2-14.8-3.9      c-1.9-3.4-1.8-7.3-0.1-10.5c0.1-0.2,0.2-0.4,0.3-0.6l5.4-9.4l9.1-15.7L32,2L20.3,22.3l-5.2,9.1c-0.3,0.4-0.5,0.9-0.7,1.3      c-0.7,1.3-1.3,2.7-1.6,4.2c-1.3,4.9-0.7,9.9,1.6,14.4c0.1,0.3,0.3,0.5,0.4,0.8l0,0c0,0,0,0,0,0c0,0,0,0,0,0l0,0      c5.5,9.5,17.8,12.8,27.3,7.3c2.9-1.6,5.1-3.9,6.8-6.5l0,0C52.6,46.9,53.2,39.2,49.7,32.6z"></path></g></g></g></g></svg>