<svg height='100px' width='100px'  fill="#fdfdfd" xmlns="http://www.w3.org/2000/svg" xmlns:xlink="http://www.w3.org/1999/xlink" version="1.1" x="0px" y="0px" viewBox="0 0 66 66" enable-background="new 0 0 66 66" xml:space="preserve"><g><path d="M26.2729,50.2857c-1.2028,3.1743-1.5748,4.1662-1.674,4.4143c0,0,0,0,0,0.0124c-0.0124,0.0124-0.0124,0.0248-0.0124,0.0248   c-0.0124,0.0124-0.0124,0.0124-0.0124,0.0247c-0.0124,0.0248-0.0124,0.0372-0.0124,0.0248L32.969,64l8.4568-9.2133   c0,0,0-0.0124-0.0248-0.0495c0-0.0124,0-0.0248-0.0124-0.0372c-0.0992-0.2728-0.4588-1.24-1.612-4.2904   c4.2532-2.914,18.972-14.1236,21.5265-21.7745c-0.93,0.3596-2.0214,0.5829-3.2365,0.8805   c1.2028-2.1576,2.1082-4.4269,2.5669-6.9069c-0.9548,0.5331-2.1203,0.9548-3.3976,1.4631   c0.9796-2.5543,1.6121-5.1955,1.7359-7.9855c-0.9669,0.7317-2.1824,1.3765-3.5214,2.1328   c0.6945-2.9635,0.9796-5.9643,0.6821-9.0519c-0.9548,0.9548-2.1948,1.86-3.5465,2.8891C52.8958,8.696,52.7347,5.3479,51.9285,2   c-3.5712,4.7741-12.3504,9.2628-12.0156,25.2091c0.062,3.4224-1.1656,6.7828-2.852,9.7714   c-0.0124,0.0247-0.0372,0.0619-0.0496,0.0991c-0.5704,1.0043-0.9053,2.0955-1.054,3.1867   c-0.3599-0.9731-0.6091-1.6529-0.7939-2.1379c-0.3412-0.8953-1.1964-1.4828-2.1545-1.4828c-0.9612,0-1.8197,0.5887-2.1568,1.4887   c-0.1847,0.4932-0.436,1.182-0.8095,2.1692c-0.1365-1.1036-0.4836-2.2072-1.054-3.224c-0.0248-0.0372-0.0372-0.0745-0.062-0.0991   c-1.674-2.9886-2.9016-6.3489-2.8396-9.7714C26.4093,11.2628,17.6426,6.7741,14.059,2c-0.806,3.3479-0.9548,6.696-0.6448,10.0564   c-1.3516-1.0291-2.5916-1.9343-3.5464-2.8891c-0.2976,3.0876-0.0124,6.0884,0.682,9.0519   c-1.3392-0.7562-2.5544-1.4011-3.5216-2.1328c0.124,2.79,0.744,5.4312,1.736,7.9855c-1.2772-0.5083-2.4428-0.93-3.3976-1.4631   c0.4588,2.48,1.364,4.7493,2.5668,6.9069c-1.2153-0.2976-2.3188-0.5209-3.2364-0.8805   C7.7722,37.836,17.4441,42.7836,26.2729,50.2857z"></path></g></svg>