<svg height='100px' width='100px'  fill="#fdfdfd" xmlns="http://www.w3.org/2000/svg" xmlns:xlink="http://www.w3.org/1999/xlink" xml:space="preserve" version="1.1" style="shape-rendering:geometricPrecision;text-rendering:geometricPrecision;image-rendering:optimizeQuality;" viewBox="0 0 333 333" x="0px" y="0px" fill-rule="evenodd" clip-rule="evenodd"><defs><style type="text/css">
   
    .fil0 {fill:#fdfdfd}
   
  </style></defs><g><g><path class="fil0" d="M257 234c-12,26 -36,46 -67,48 -21,2 -40,-5 -56,-17 10,-1 19,-4 28,-8l8 1c6,2 13,2 19,2 26,0 50,-10 68,-26z"></path><path class="fil0" d="M68 118c9,-38 41,-68 83,-72 25,-2 50,7 68,22 -9,-3 -19,-4 -30,-4 -26,0 -50,10 -69,28l-5 5c-18,2 -35,10 -47,21z"></path><path class="fil0" d="M124 102c44,0 79,36 79,79 0,44 -35,80 -79,80 -44,0 -80,-36 -80,-80 0,-43 36,-79 80,-79zm0 5c-41,0 -75,33 -75,74 0,41 34,75 75,75 41,0 74,-34 74,-75 0,-41 -33,-74 -74,-74z"></path><path class="fil0" d="M189 69c52,0 94,41 94,93 0,52 -42,93 -94,93 -6,0 -12,0 -18,-2 23,-15 39,-41 39,-72 0,-47 -39,-85 -86,-86 17,-16 40,-26 65,-26zm-52 22c44,7 78,45 78,90 0,27 -12,52 -31,69 2,0 3,0 5,0 49,0 89,-39 89,-88 0,-49 -40,-88 -89,-88 -19,0 -37,6 -52,17z"></path><path class="fil0" d="M196 245c43,-4 76,-39 76,-83 0,-46 -37,-83 -83,-83 -13,0 -27,3 -39,10 41,11 70,49 70,92 0,24 -9,46 -24,64z"></path></g></g></svg>