<svg height='100px' width='100px'  fill="#fdfdfd" xmlns="http://www.w3.org/2000/svg" xmlns:xlink="http://www.w3.org/1999/xlink" xml:space="preserve" version="1.1" style="shape-rendering:geometricPrecision;text-rendering:geometricPrecision;image-rendering:optimizeQuality;" viewBox="0 0 333 333" x="0px" y="0px" fill-rule="evenodd" clip-rule="evenodd"><defs><style type="text/css">
   
    .fil0 {fill:#fdfdfd}
    .fil1 {fill:#fdfdfd;fill-rule:nonzero}
   
  </style></defs><g><g><path class="fil0" d="M89 129l31 0c3,9 6,17 11,23 9,12 22,19 36,19l0 0 0 0 0 0 0 0c13,0 26,-7 35,-19 5,-6 9,-14 11,-23l32 0c-1,20 -10,38 -23,52 -14,14 -34,22 -55,22l0 0 0 0 0 0 0 0c-22,0 -41,-8 -56,-22 -13,-14 -21,-32 -22,-52z"></path><path class="fil1" d="M102 182c-21,31 -17,73 9,99 30,30 81,30 111,0 27,-26 30,-68 9,-99 -1,1 -2,3 -4,4 -33,33 -87,33 -121,0 -1,-1 -2,-3 -4,-4zm17 91c-19,-19 -24,-48 -14,-73 36,30 88,30 123,0 10,25 5,54 -14,73 -27,27 -68,27 -95,0z"></path><path class="fil1" d="M199 99l0 0 0 0 0 0 0 0c0,-25 -10,-48 -27,-64 -2,-2 -3,-4 -5,-5 -2,1 -4,3 -6,5 -16,16 -26,39 -26,64l0 0 0 0 0 0 0 0c0,24 10,47 26,63 2,2 4,4 6,5 2,-1 3,-3 5,-5 17,-16 27,-39 27,-63z"></path></g></g></svg>