<svg height='100px' width='100px'  fill="#fdfdfd" xmlns="http://www.w3.org/2000/svg" xmlns:xlink="http://www.w3.org/1999/xlink" version="1.1" x="0px" y="0px" viewBox="0 0 100 100" enable-background="new 0 0 100 100" xml:space="preserve"><g><g><path d="M42.143,41.429c1.787,1.589-16.15-10.996,5.36-29.978c5.168-4.561,10.625-7.017,11.052-6.341    c0.651,1.036-1.135,4.22-0.97,9.109c0.084,2.489,0.033,8.048-0.284,12.807c-0.208,3.113-1.271,8.854-2.283,11.199    c-2.012,4.66-4.651,8.39-5.728,8.764c-2.176,0.753-0.521-2.979-0.856-6.552c-0.335-3.573-1.724-7.246-1.03-9.231    c0.696-1.986-2.878,0.099-3.97,2.879c-1.092,2.78,0.397,6.353,0.1,7.148C43.235,42.025,42.143,41.429,42.143,41.429z"></path></g><g><g><path d="M55.611,43.508c0,0,4.243-9.17,17.06-8.255c5.455,0.39,12.25,4.225,17.556,3.051c5.306-1.174,2.639,0.815,1.852,3.083     C86.038,58.803,64.997,57.525,55.481,54.25c-9.517-3.276,1.127-3.141,1.836-2.88c0.71,0.26,9.908-0.622,14.53-3.45     c4.622-2.828,8.71-2.584,1.924-3.102c-6.786-0.518-13.532-0.262-17.717,1.449C51.87,47.978,55.238,44.215,55.611,43.508z"></path></g></g><g><path d="M43.299,52.883c1.336-0.839,6.965-2.821,3.449,4.07c-1.83,3.587-0.833,8.697,0.358,14.058    c1.191,5.359,1.106,4.477,2.382,1.787c1.657-3.492,2.327-5.977,5.217-0.045c1.258,2.581,0.742,7.429-0.961,10.671    c-4.355,8.291-6.467,9.249-9.12,11.213c-2.578,1.908-0.893-4.07-2.779-8.933c-1.193-3.077-3.747-7.761-5.279-12.966    c-0.891-3.023-0.646-7.932-0.058-10.042c0.845-3.041,1.85-5.002,2.978-6.354C40.247,55.428,42.174,53.589,43.299,52.883z"></path></g><g><path d="M26.651,62.72c-6.167,2.626-23.506,0.909-19.506-0.821c5.065-2.19,8.968-7.429,12.593-9.24    c3.847-1.923,9.56-1.736,12.549-1.888c1.407-0.071,1.901,0.953,0.794,1.639c-2.058,1.275-6.987,2.992-3.364,2.74    c7.256-0.506,10.434-3.385,7.765,0.107C36.342,56.747,30.352,61.145,26.651,62.72z"></path></g><g><path d="M40.098,48.665c-3.568,1.03-17.816-2.41-21.094-6.949c-4.731-6.55-3.153-15.871-6.783-18.054    c-3.63-2.185,13.94-1.49,18.308,5.359c4.368,6.85,6.948,11.912,5.956,13.202c-0.993,1.292-1.588,2.581-3.772-0.992    c-2.184-3.574-7.231-6.789-6.055-2.681C27.772,42.444,41.434,48.279,40.098,48.665z"></path></g></g></svg>