<svg width="100" height="125" viewBox="0 0 100 125" fill="none" xmlns="http://www.w3.org/2000/svg">
<path d="M97.6079 27.2C97.1079 22.3 95.9079 18.2 94.6079 15C90.4079 15.8 84.3079 17.5 77.9079 21.1C73.3079 23.6 69.7079 26.5 67.1079 29C61.9079 26.9 56.3079 25.7 50.5079 25.7C44.7079 25.7 39.1079 26.9 33.9079 29C31.2079 26.5 27.6079 23.7 23.1079 21.1C16.5079 17.5 10.5079 15.9 6.20787 15C4.90787 18.2 3.60787 22.3 3.20787 27.2C2.10787 38.4 5.60787 47.5 8.20787 52.6C5.80787 57.7 4.50787 63.1 4.70787 68.3C5.40787 86.4 23.3079 98.9 27.5079 101.8C32.2079 105.1 40.0079 110.5 50.3079 110.9C60.6079 110.5 68.4079 105.1 73.1079 101.8C77.3079 98.9 95.2079 86.4 95.9079 68.3C96.1079 63 94.8079 57.6 92.4079 52.6C95.2079 47.5 98.7079 38.4 97.6079 27.2ZM12.3079 45.7C10.7079 42.8 8.50787 37.4 9.20787 30.9C9.50787 28.1 10.3079 25.7 11.1079 23.8C13.7079 24.3 17.4079 25.2 21.3079 27.3C24.1079 28.8 26.2079 30.4 27.8079 31.8C21.6079 35.4 16.3079 40.2 12.3079 45.7ZM29.8079 68.3C22.4079 66 19.3079 59.8 18.9079 58.8C20.4079 57.6 23.6079 55.5 27.8079 55.4C34.2079 55.3 40.4079 59.7 43.5079 66.6C42.6079 67.2 36.8079 70.4 29.8079 68.3ZM53.2079 84.5C52.2079 85.8 51.2079 86.8 50.4079 87.5C49.6079 87 48.4079 86 47.4079 84.5C46.6079 83.3 46.1079 82.2 45.9079 81.4C47.1079 81.1 48.6079 80.8 50.5079 80.8C51.7079 80.8 53.3079 80.9 55.1079 81.4C54.6079 82.3 54.0079 83.4 53.2079 84.5ZM71.0079 68.3C63.9079 70.4 58.2079 67.3 57.2079 66.7C60.3079 59.8 66.5079 55.3 72.9079 55.5C77.2079 55.6 80.3079 57.7 81.8079 58.9C81.5079 59.8 78.4079 66 71.0079 68.3ZM88.5079 45.7C84.5079 40.2 79.2079 35.4 73.0079 31.9C74.6079 30.5 76.8079 28.8 79.5079 27.4C83.5079 25.3 87.1079 24.3 89.7079 23.9C90.5079 25.7 91.3079 28.1 91.6079 31C92.3079 37.4 90.1079 42.8 88.5079 45.7Z" fill="#FDFDFD"/>
</svg>
